<mxfile host="app.diagrams.net" agent="Mozilla/5.0 (Windows NT 10.0; Win64; x64) AppleWebKit/537.36 (KHTML, like Gecko) Chrome/130.0.0.0 Safari/537.36 Edg/130.0.0.0" version="24.8.3">
  <diagram name="第 1 页" id="iqZMlo035DSdwaAz5ivV">
    <mxGraphModel dx="999" dy="634" grid="1" gridSize="10" guides="1" tooltips="1" connect="1" arrows="1" fold="1" page="1" pageScale="1" pageWidth="827" pageHeight="1169" math="1" shadow="0">
      <root>
        <mxCell id="0" />
        <mxCell id="1" parent="0" />
        <mxCell id="v14jLjF_bsPANkVtZ4wa-32" value="" style="rounded=0;whiteSpace=wrap;html=1;fillColor=#f8cecc;strokeColor=#b85450;" vertex="1" parent="1">
          <mxGeometry x="45" y="680" width="490" height="400" as="geometry" />
        </mxCell>
        <mxCell id="3i5TvUh2Iblc64YUUQVz-4" value="" style="group;movable=0;resizable=0;rotatable=0;deletable=0;editable=0;locked=1;connectable=0;" parent="1" vertex="1" connectable="0">
          <mxGeometry x="120" y="200" width="120" height="60" as="geometry" />
        </mxCell>
        <mxCell id="3i5TvUh2Iblc64YUUQVz-1" value="" style="rounded=0;whiteSpace=wrap;html=1;movable=0;resizable=0;rotatable=0;deletable=0;editable=0;locked=1;connectable=0;" parent="3i5TvUh2Iblc64YUUQVz-4" vertex="1">
          <mxGeometry width="120" height="60" as="geometry" />
        </mxCell>
        <mxCell id="3i5TvUh2Iblc64YUUQVz-2" value="" style="endArrow=none;html=1;rounded=0;entryX=0.5;entryY=0;entryDx=0;entryDy=0;" parent="3i5TvUh2Iblc64YUUQVz-4" target="3i5TvUh2Iblc64YUUQVz-1" edge="1">
          <mxGeometry width="50" height="50" relative="1" as="geometry">
            <mxPoint x="60" y="60" as="sourcePoint" />
            <mxPoint x="70" as="targetPoint" />
          </mxGeometry>
        </mxCell>
        <mxCell id="3i5TvUh2Iblc64YUUQVz-6" value="" style="group;movable=1;resizable=1;rotatable=1;deletable=1;editable=1;locked=0;connectable=1;" parent="1" vertex="1" connectable="0">
          <mxGeometry x="300" y="200" width="130" height="60" as="geometry" />
        </mxCell>
        <mxCell id="3i5TvUh2Iblc64YUUQVz-7" value="" style="rounded=0;whiteSpace=wrap;html=1;movable=0;resizable=0;rotatable=0;deletable=0;editable=0;locked=1;connectable=0;" parent="3i5TvUh2Iblc64YUUQVz-6" vertex="1">
          <mxGeometry width="120" height="60" as="geometry" />
        </mxCell>
        <mxCell id="3i5TvUh2Iblc64YUUQVz-8" value="" style="endArrow=none;html=1;rounded=0;entryX=0.5;entryY=0;entryDx=0;entryDy=0;" parent="3i5TvUh2Iblc64YUUQVz-6" target="3i5TvUh2Iblc64YUUQVz-7" edge="1">
          <mxGeometry width="50" height="50" relative="1" as="geometry">
            <mxPoint x="60" y="60" as="sourcePoint" />
            <mxPoint x="70" as="targetPoint" />
          </mxGeometry>
        </mxCell>
        <mxCell id="3i5TvUh2Iblc64YUUQVz-24" value="next" style="text;html=1;align=center;verticalAlign=middle;whiteSpace=wrap;rounded=0;" parent="3i5TvUh2Iblc64YUUQVz-6" vertex="1">
          <mxGeometry x="60" y="15" width="60" height="30" as="geometry" />
        </mxCell>
        <mxCell id="3i5TvUh2Iblc64YUUQVz-9" value="" style="group;movable=1;resizable=1;rotatable=1;deletable=1;editable=1;locked=0;connectable=1;" parent="1" vertex="1" connectable="0">
          <mxGeometry x="480" y="200" width="120" height="60" as="geometry" />
        </mxCell>
        <mxCell id="3i5TvUh2Iblc64YUUQVz-10" value="" style="rounded=0;whiteSpace=wrap;html=1;movable=0;resizable=0;rotatable=0;deletable=0;editable=0;locked=1;connectable=0;" parent="3i5TvUh2Iblc64YUUQVz-9" vertex="1">
          <mxGeometry width="120" height="60" as="geometry" />
        </mxCell>
        <mxCell id="3i5TvUh2Iblc64YUUQVz-11" value="" style="endArrow=none;html=1;rounded=0;entryX=0.5;entryY=0;entryDx=0;entryDy=0;" parent="3i5TvUh2Iblc64YUUQVz-9" target="3i5TvUh2Iblc64YUUQVz-10" edge="1">
          <mxGeometry width="50" height="50" relative="1" as="geometry">
            <mxPoint x="60" y="60" as="sourcePoint" />
            <mxPoint x="70" as="targetPoint" />
          </mxGeometry>
        </mxCell>
        <mxCell id="3i5TvUh2Iblc64YUUQVz-25" value="next" style="text;html=1;align=center;verticalAlign=middle;whiteSpace=wrap;rounded=0;" parent="3i5TvUh2Iblc64YUUQVz-9" vertex="1">
          <mxGeometry x="60" y="15" width="60" height="30" as="geometry" />
        </mxCell>
        <mxCell id="3i5TvUh2Iblc64YUUQVz-12" value="" style="group;movable=1;resizable=1;rotatable=1;deletable=1;editable=1;locked=0;connectable=1;" parent="1" vertex="1" connectable="0">
          <mxGeometry x="660" y="200" width="120" height="60" as="geometry" />
        </mxCell>
        <mxCell id="3i5TvUh2Iblc64YUUQVz-13" value="" style="rounded=0;whiteSpace=wrap;html=1;movable=0;resizable=0;rotatable=0;deletable=0;editable=0;locked=1;connectable=0;" parent="3i5TvUh2Iblc64YUUQVz-12" vertex="1">
          <mxGeometry width="120" height="60" as="geometry" />
        </mxCell>
        <mxCell id="3i5TvUh2Iblc64YUUQVz-14" value="" style="endArrow=none;html=1;rounded=0;entryX=0.5;entryY=0;entryDx=0;entryDy=0;" parent="3i5TvUh2Iblc64YUUQVz-12" target="3i5TvUh2Iblc64YUUQVz-13" edge="1">
          <mxGeometry width="50" height="50" relative="1" as="geometry">
            <mxPoint x="60" y="60" as="sourcePoint" />
            <mxPoint x="70" as="targetPoint" />
          </mxGeometry>
        </mxCell>
        <mxCell id="3i5TvUh2Iblc64YUUQVz-26" value="next" style="text;html=1;align=center;verticalAlign=middle;whiteSpace=wrap;rounded=0;" parent="3i5TvUh2Iblc64YUUQVz-12" vertex="1">
          <mxGeometry x="60" y="15" width="60" height="30" as="geometry" />
        </mxCell>
        <mxCell id="3i5TvUh2Iblc64YUUQVz-15" value="" style="endArrow=classic;html=1;rounded=0;entryX=0;entryY=0.5;entryDx=0;entryDy=0;" parent="1" target="3i5TvUh2Iblc64YUUQVz-6" edge="1">
          <mxGeometry width="50" height="50" relative="1" as="geometry">
            <mxPoint x="240" y="230" as="sourcePoint" />
            <mxPoint x="290" y="290" as="targetPoint" />
          </mxGeometry>
        </mxCell>
        <mxCell id="3i5TvUh2Iblc64YUUQVz-16" value="head" style="text;html=1;align=center;verticalAlign=middle;whiteSpace=wrap;rounded=0;" parent="1" vertex="1">
          <mxGeometry x="120" y="215" width="60" height="30" as="geometry" />
        </mxCell>
        <mxCell id="3i5TvUh2Iblc64YUUQVz-17" value="" style="endArrow=classic;html=1;rounded=0;exitX=1;exitY=0.5;exitDx=0;exitDy=0;entryX=0;entryY=0.5;entryDx=0;entryDy=0;" parent="1" source="3i5TvUh2Iblc64YUUQVz-24" target="3i5TvUh2Iblc64YUUQVz-9" edge="1">
          <mxGeometry width="50" height="50" relative="1" as="geometry">
            <mxPoint x="390" y="340" as="sourcePoint" />
            <mxPoint x="440" y="290" as="targetPoint" />
            <Array as="points">
              <mxPoint x="460" y="230" />
            </Array>
          </mxGeometry>
        </mxCell>
        <mxCell id="3i5TvUh2Iblc64YUUQVz-18" value="" style="endArrow=classic;html=1;rounded=0;exitX=1;exitY=0.5;exitDx=0;exitDy=0;entryX=0;entryY=0.5;entryDx=0;entryDy=0;" parent="1" source="3i5TvUh2Iblc64YUUQVz-9" target="3i5TvUh2Iblc64YUUQVz-12" edge="1">
          <mxGeometry width="50" height="50" relative="1" as="geometry">
            <mxPoint x="620" y="350" as="sourcePoint" />
            <mxPoint x="670" y="300" as="targetPoint" />
          </mxGeometry>
        </mxCell>
        <mxCell id="3i5TvUh2Iblc64YUUQVz-19" value="" style="group;movable=1;resizable=1;rotatable=1;deletable=1;editable=1;locked=0;connectable=1;" parent="1" vertex="1" connectable="0">
          <mxGeometry x="840" y="200" width="120" height="60" as="geometry" />
        </mxCell>
        <mxCell id="3i5TvUh2Iblc64YUUQVz-20" value="" style="rounded=0;whiteSpace=wrap;html=1;movable=0;resizable=0;rotatable=0;deletable=0;editable=0;locked=1;connectable=0;" parent="3i5TvUh2Iblc64YUUQVz-19" vertex="1">
          <mxGeometry width="120" height="60" as="geometry" />
        </mxCell>
        <mxCell id="3i5TvUh2Iblc64YUUQVz-21" value="" style="endArrow=none;html=1;rounded=0;entryX=0.5;entryY=0;entryDx=0;entryDy=0;" parent="3i5TvUh2Iblc64YUUQVz-19" target="3i5TvUh2Iblc64YUUQVz-20" edge="1">
          <mxGeometry width="50" height="50" relative="1" as="geometry">
            <mxPoint x="60" y="60" as="sourcePoint" />
            <mxPoint x="70" as="targetPoint" />
          </mxGeometry>
        </mxCell>
        <mxCell id="3i5TvUh2Iblc64YUUQVz-23" value="NUll" style="text;html=1;align=center;verticalAlign=middle;whiteSpace=wrap;rounded=0;" parent="3i5TvUh2Iblc64YUUQVz-19" vertex="1">
          <mxGeometry x="60" y="15" width="60" height="30" as="geometry" />
        </mxCell>
        <mxCell id="3i5TvUh2Iblc64YUUQVz-22" value="" style="endArrow=classic;html=1;rounded=0;exitX=1;exitY=0.5;exitDx=0;exitDy=0;entryX=0;entryY=0.5;entryDx=0;entryDy=0;" parent="1" source="3i5TvUh2Iblc64YUUQVz-12" target="3i5TvUh2Iblc64YUUQVz-19" edge="1">
          <mxGeometry width="50" height="50" relative="1" as="geometry">
            <mxPoint x="780" y="350" as="sourcePoint" />
            <mxPoint x="830" y="300" as="targetPoint" />
          </mxGeometry>
        </mxCell>
        <mxCell id="3i5TvUh2Iblc64YUUQVz-32" value="" style="group" parent="1" vertex="1" connectable="0">
          <mxGeometry x="120" y="100" width="60" height="70" as="geometry" />
        </mxCell>
        <mxCell id="3i5TvUh2Iblc64YUUQVz-27" value="" style="endArrow=classic;html=1;rounded=0;movable=1;resizable=1;rotatable=1;deletable=1;editable=1;locked=0;connectable=1;" parent="3i5TvUh2Iblc64YUUQVz-32" edge="1">
          <mxGeometry width="50" height="50" relative="1" as="geometry">
            <mxPoint x="30" y="20" as="sourcePoint" />
            <mxPoint x="30" y="70" as="targetPoint" />
          </mxGeometry>
        </mxCell>
        <mxCell id="3i5TvUh2Iblc64YUUQVz-28" value="current" style="text;html=1;align=center;verticalAlign=middle;whiteSpace=wrap;rounded=0;movable=1;resizable=1;rotatable=1;deletable=1;editable=1;locked=0;connectable=1;" parent="3i5TvUh2Iblc64YUUQVz-32" vertex="1">
          <mxGeometry width="60" height="30" as="geometry" />
        </mxCell>
        <mxCell id="3i5TvUh2Iblc64YUUQVz-33" value="" style="rounded=0;whiteSpace=wrap;html=1;" parent="1" vertex="1">
          <mxGeometry x="220" y="265" width="240" height="150" as="geometry" />
        </mxCell>
        <mxCell id="3i5TvUh2Iblc64YUUQVz-34" value="&lt;font style=&quot;font-size: 22px;&quot;&gt;*head&lt;/font&gt;" style="rounded=0;whiteSpace=wrap;html=1;" parent="1" vertex="1">
          <mxGeometry x="254" y="290" width="160" height="80" as="geometry" />
        </mxCell>
        <mxCell id="3i5TvUh2Iblc64YUUQVz-35" value="&lt;font style=&quot;font-size: 22px;&quot;&gt;*&lt;/font&gt;" style="text;html=1;align=center;verticalAlign=middle;whiteSpace=wrap;rounded=0;" parent="1" vertex="1">
          <mxGeometry x="210" y="390" width="60" height="30" as="geometry" />
        </mxCell>
        <mxCell id="v14jLjF_bsPANkVtZ4wa-1" value="本科毕业设计" style="rounded=0;whiteSpace=wrap;html=1;" vertex="1" parent="1">
          <mxGeometry x="400" y="600" width="120" height="60" as="geometry" />
        </mxCell>
        <mxCell id="v14jLjF_bsPANkVtZ4wa-2" value="项目作品" style="rounded=0;whiteSpace=wrap;html=1;" vertex="1" parent="1">
          <mxGeometry x="230" y="760" width="120" height="60" as="geometry" />
        </mxCell>
        <mxCell id="v14jLjF_bsPANkVtZ4wa-3" value="毕业论文" style="rounded=0;whiteSpace=wrap;html=1;" vertex="1" parent="1">
          <mxGeometry x="690" y="740" width="120" height="60" as="geometry" />
        </mxCell>
        <mxCell id="v14jLjF_bsPANkVtZ4wa-4" value="" style="endArrow=classic;html=1;rounded=0;exitX=0;exitY=0.5;exitDx=0;exitDy=0;entryX=0.5;entryY=0;entryDx=0;entryDy=0;" edge="1" parent="1" source="v14jLjF_bsPANkVtZ4wa-1" target="v14jLjF_bsPANkVtZ4wa-2">
          <mxGeometry width="50" height="50" relative="1" as="geometry">
            <mxPoint x="170" y="670" as="sourcePoint" />
            <mxPoint x="220" y="620" as="targetPoint" />
          </mxGeometry>
        </mxCell>
        <mxCell id="v14jLjF_bsPANkVtZ4wa-5" value="" style="endArrow=classic;html=1;rounded=0;exitX=1;exitY=0.5;exitDx=0;exitDy=0;entryX=0.569;entryY=0.017;entryDx=0;entryDy=0;entryPerimeter=0;" edge="1" parent="1" source="v14jLjF_bsPANkVtZ4wa-1" target="v14jLjF_bsPANkVtZ4wa-3">
          <mxGeometry width="50" height="50" relative="1" as="geometry">
            <mxPoint x="410" y="830" as="sourcePoint" />
            <mxPoint x="460" y="780" as="targetPoint" />
          </mxGeometry>
        </mxCell>
        <mxCell id="v14jLjF_bsPANkVtZ4wa-6" value="开发" style="rounded=0;whiteSpace=wrap;html=1;" vertex="1" parent="1">
          <mxGeometry x="60" y="860" width="120" height="60" as="geometry" />
        </mxCell>
        <mxCell id="v14jLjF_bsPANkVtZ4wa-7" value="调试" style="rounded=0;whiteSpace=wrap;html=1;" vertex="1" parent="1">
          <mxGeometry x="230" y="870" width="120" height="60" as="geometry" />
        </mxCell>
        <mxCell id="v14jLjF_bsPANkVtZ4wa-8" value="部署" style="rounded=0;whiteSpace=wrap;html=1;" vertex="1" parent="1">
          <mxGeometry x="390" y="860" width="120" height="60" as="geometry" />
        </mxCell>
        <mxCell id="v14jLjF_bsPANkVtZ4wa-9" value="" style="endArrow=classic;html=1;rounded=0;exitX=0;exitY=0.5;exitDx=0;exitDy=0;entryX=0.5;entryY=0;entryDx=0;entryDy=0;" edge="1" parent="1" source="v14jLjF_bsPANkVtZ4wa-2" target="v14jLjF_bsPANkVtZ4wa-6">
          <mxGeometry width="50" height="50" relative="1" as="geometry">
            <mxPoint x="60" y="820" as="sourcePoint" />
            <mxPoint x="110" y="770" as="targetPoint" />
          </mxGeometry>
        </mxCell>
        <mxCell id="v14jLjF_bsPANkVtZ4wa-10" value="" style="endArrow=classic;html=1;rounded=0;exitX=0.597;exitY=1.039;exitDx=0;exitDy=0;exitPerimeter=0;" edge="1" parent="1" source="v14jLjF_bsPANkVtZ4wa-2">
          <mxGeometry width="50" height="50" relative="1" as="geometry">
            <mxPoint x="400" y="800" as="sourcePoint" />
            <mxPoint x="302" y="870" as="targetPoint" />
          </mxGeometry>
        </mxCell>
        <mxCell id="v14jLjF_bsPANkVtZ4wa-11" value="" style="endArrow=classic;html=1;rounded=0;exitX=1;exitY=0.5;exitDx=0;exitDy=0;entryX=0.5;entryY=0;entryDx=0;entryDy=0;" edge="1" parent="1" source="v14jLjF_bsPANkVtZ4wa-2" target="v14jLjF_bsPANkVtZ4wa-8">
          <mxGeometry width="50" height="50" relative="1" as="geometry">
            <mxPoint x="420" y="1030" as="sourcePoint" />
            <mxPoint x="470" y="980" as="targetPoint" />
          </mxGeometry>
        </mxCell>
        <mxCell id="v14jLjF_bsPANkVtZ4wa-12" value="" style="endArrow=none;dashed=1;html=1;rounded=0;exitX=0.986;exitY=0.372;exitDx=0;exitDy=0;exitPerimeter=0;" edge="1" parent="1" source="v14jLjF_bsPANkVtZ4wa-2">
          <mxGeometry width="50" height="50" relative="1" as="geometry">
            <mxPoint x="490" y="780" as="sourcePoint" />
            <mxPoint x="680" y="760" as="targetPoint" />
          </mxGeometry>
        </mxCell>
        <mxCell id="v14jLjF_bsPANkVtZ4wa-13" value="你必须做完项目，然后才能开始写论文" style="text;html=1;align=center;verticalAlign=middle;resizable=0;points=[];autosize=1;strokeColor=none;fillColor=none;" vertex="1" parent="1">
          <mxGeometry x="385" y="728" width="230" height="30" as="geometry" />
        </mxCell>
        <mxCell id="v14jLjF_bsPANkVtZ4wa-14" value="开题" style="rounded=0;whiteSpace=wrap;html=1;" vertex="1" parent="1">
          <mxGeometry x="640" y="860" width="120" height="60" as="geometry" />
        </mxCell>
        <mxCell id="v14jLjF_bsPANkVtZ4wa-15" value="中期" style="rounded=0;whiteSpace=wrap;html=1;" vertex="1" parent="1">
          <mxGeometry x="800" y="860" width="120" height="60" as="geometry" />
        </mxCell>
        <mxCell id="v14jLjF_bsPANkVtZ4wa-16" value="答辩" style="rounded=0;whiteSpace=wrap;html=1;" vertex="1" parent="1">
          <mxGeometry x="970" y="860" width="120" height="60" as="geometry" />
        </mxCell>
        <mxCell id="v14jLjF_bsPANkVtZ4wa-17" value="" style="endArrow=classic;html=1;rounded=0;exitX=0.25;exitY=1;exitDx=0;exitDy=0;entryX=0.5;entryY=0;entryDx=0;entryDy=0;" edge="1" parent="1" source="v14jLjF_bsPANkVtZ4wa-3" target="v14jLjF_bsPANkVtZ4wa-14">
          <mxGeometry width="50" height="50" relative="1" as="geometry">
            <mxPoint x="570" y="1010" as="sourcePoint" />
            <mxPoint x="620" y="960" as="targetPoint" />
          </mxGeometry>
        </mxCell>
        <mxCell id="v14jLjF_bsPANkVtZ4wa-18" value="" style="endArrow=classic;html=1;rounded=0;exitX=0.5;exitY=1;exitDx=0;exitDy=0;entryX=0.581;entryY=0.028;entryDx=0;entryDy=0;entryPerimeter=0;" edge="1" parent="1" source="v14jLjF_bsPANkVtZ4wa-3" target="v14jLjF_bsPANkVtZ4wa-15">
          <mxGeometry width="50" height="50" relative="1" as="geometry">
            <mxPoint x="940" y="750" as="sourcePoint" />
            <mxPoint x="990" y="700" as="targetPoint" />
          </mxGeometry>
        </mxCell>
        <mxCell id="v14jLjF_bsPANkVtZ4wa-19" value="" style="endArrow=classic;html=1;rounded=0;exitX=0.75;exitY=1;exitDx=0;exitDy=0;entryX=0.597;entryY=0.039;entryDx=0;entryDy=0;entryPerimeter=0;" edge="1" parent="1" source="v14jLjF_bsPANkVtZ4wa-3" target="v14jLjF_bsPANkVtZ4wa-16">
          <mxGeometry width="50" height="50" relative="1" as="geometry">
            <mxPoint x="1050" y="790" as="sourcePoint" />
            <mxPoint x="1100" y="740" as="targetPoint" />
          </mxGeometry>
        </mxCell>
        <mxCell id="v14jLjF_bsPANkVtZ4wa-22" value="" style="edgeStyle=orthogonalEdgeStyle;rounded=0;orthogonalLoop=1;jettySize=auto;html=1;" edge="1" parent="1" source="v14jLjF_bsPANkVtZ4wa-20" target="v14jLjF_bsPANkVtZ4wa-21">
          <mxGeometry relative="1" as="geometry" />
        </mxCell>
        <mxCell id="v14jLjF_bsPANkVtZ4wa-20" value="定题" style="rounded=0;whiteSpace=wrap;html=1;" vertex="1" parent="1">
          <mxGeometry x="120" y="480" width="120" height="60" as="geometry" />
        </mxCell>
        <mxCell id="v14jLjF_bsPANkVtZ4wa-25" value="" style="edgeStyle=orthogonalEdgeStyle;rounded=0;orthogonalLoop=1;jettySize=auto;html=1;" edge="1" parent="1" source="v14jLjF_bsPANkVtZ4wa-21" target="v14jLjF_bsPANkVtZ4wa-24">
          <mxGeometry relative="1" as="geometry" />
        </mxCell>
        <mxCell id="v14jLjF_bsPANkVtZ4wa-21" value="准备工作" style="rounded=0;whiteSpace=wrap;html=1;" vertex="1" parent="1">
          <mxGeometry x="294" y="480" width="120" height="60" as="geometry" />
        </mxCell>
        <mxCell id="v14jLjF_bsPANkVtZ4wa-27" value="" style="edgeStyle=orthogonalEdgeStyle;rounded=0;orthogonalLoop=1;jettySize=auto;html=1;" edge="1" parent="1" source="v14jLjF_bsPANkVtZ4wa-24" target="v14jLjF_bsPANkVtZ4wa-26">
          <mxGeometry relative="1" as="geometry" />
        </mxCell>
        <mxCell id="v14jLjF_bsPANkVtZ4wa-24" value="写代码" style="rounded=0;whiteSpace=wrap;html=1;" vertex="1" parent="1">
          <mxGeometry x="470" y="480" width="120" height="60" as="geometry" />
        </mxCell>
        <mxCell id="v14jLjF_bsPANkVtZ4wa-29" value="" style="edgeStyle=orthogonalEdgeStyle;rounded=0;orthogonalLoop=1;jettySize=auto;html=1;" edge="1" parent="1" source="v14jLjF_bsPANkVtZ4wa-26" target="v14jLjF_bsPANkVtZ4wa-28">
          <mxGeometry relative="1" as="geometry" />
        </mxCell>
        <mxCell id="v14jLjF_bsPANkVtZ4wa-26" value="写论文" style="rounded=0;whiteSpace=wrap;html=1;" vertex="1" parent="1">
          <mxGeometry x="640" y="480" width="120" height="60" as="geometry" />
        </mxCell>
        <mxCell id="v14jLjF_bsPANkVtZ4wa-31" value="" style="edgeStyle=orthogonalEdgeStyle;rounded=0;orthogonalLoop=1;jettySize=auto;html=1;" edge="1" parent="1" source="v14jLjF_bsPANkVtZ4wa-28" target="v14jLjF_bsPANkVtZ4wa-30">
          <mxGeometry relative="1" as="geometry" />
        </mxCell>
        <mxCell id="v14jLjF_bsPANkVtZ4wa-28" value="改论文" style="rounded=0;whiteSpace=wrap;html=1;" vertex="1" parent="1">
          <mxGeometry x="820" y="480" width="120" height="60" as="geometry" />
        </mxCell>
        <mxCell id="v14jLjF_bsPANkVtZ4wa-30" value="答辩" style="rounded=0;whiteSpace=wrap;html=1;" vertex="1" parent="1">
          <mxGeometry x="990" y="480" width="120" height="60" as="geometry" />
        </mxCell>
      </root>
    </mxGraphModel>
  </diagram>
</mxfile>
